<svg xmlns="http://www.w3.org/2000/svg" xmlns:xlink="http://www.w3.org/1999/xlink" version="1.1" class="marks" width="693" height="427" viewBox="0 0 693 427"><rect width="693" height="427" fill="white"/><g fill="none" stroke-miterlimit="10" transform="translate(5,22)"><g class="mark-group role-frame root" role="graphics-object" aria-roledescription="group mark container"><g transform="translate(0,0)"><path class="background" aria-hidden="true" d="M0,0h600v400h-600Z"/><g><g class="mark-shape role-mark marks" role="graphics-object" aria-roledescription="shape mark container"><path aria-label="pop_density: 2.902646343; id: 36; alpha-3: AUS" role="graphics-symbol" aria-roledescription="geoshape" transform="translate(0,0)" d="M517.128,344.078L516.84,343.943L515.723,343.863L516.174,341.721L517.149,340.056L517.637,337.841L518.518,336.669L519.631,336.894L520.887,337.776L522.198,337.426L524.074,336.937L525.117,337.106L523.024,340.129L521.707,340.997L519.952,343.021L519.812,342.334ZM524.574,332.369L523.711,331.216L522.803,330.757L523.999,329.394L522.591,329.89L519.624,331.78L518.377,331.075L517.52,330.66L516.505,330.474L515.065,329.717L514.79,328.101L515.632,326.096L515.964,324.76L515.603,323.68L513.854,323.36L515.251,322.063L515.87,320.076L513.853,321.927L511.783,322.42L513.668,320.939L514.823,319.389L516.315,318.07L517.213,316.064L514.339,318.372L512.574,319.293L510.641,321.429L509.662,320.326L510.49,318.901L510.24,316.94L509.678,315.926L510.378,315.296L508.571,313.646L507.17,313.568L505.832,312.241L502.027,312.5L498.918,313.475L496.152,314.384L494.283,314.205L491.466,315.6L489.399,316.229L488.338,317.645L487.057,318.741L485.298,318.81L483.913,319.047L482.347,318.559L480.755,318.851L479.301,318.974L477.418,320.408L476.884,320.29L475.503,321.048L474.131,321.896L472.705,321.792L471.354,321.792L470.005,320.081L469.153,319.566L469.891,318.024L471.067,317.654L471.684,317.041L472.039,316.068L473.107,314.177L473.561,312.56L473.608,309.784L473.897,308.213L474.597,306.641L474.451,304.835L474.703,304.016L474.185,302.908L474.702,300.72L474.273,298.504L474.379,297.304L474.895,298.518L475.058,295.907L475.83,296.723L476.094,297.814L476.538,296.37L476.209,294.147L476.292,293.256L476.061,292.407L476.797,290.768L477.435,290.065L478.146,288.642L478.405,286.97L479.856,284.911L479.406,287.091L480.866,285.124L482.863,284.164L484.244,282.939L486.163,281.883L487.195,281.659L487.694,282.014L489.672,280.942L491.056,280.62L491.547,279.991L492.189,279.727L493.354,279.796L495.836,278.951L497.339,277.669L498.283,276.121L499.913,274.649L500.295,273.49L500.721,271.91L502.794,269.435L503.135,271.95L504.198,271.369L503.74,269.993L504.733,268.576L505.547,269.208L506.294,266.99L507.785,265.549L508.545,264.394L509.743,263.894L509.936,263.075L510.826,263.417L511.009,262.683L512.048,262.261L513.177,261.863L514.524,263.209L515.385,264.945L516.737,264.964L518.066,265.242L517.938,263.631L519.448,261.282L520.586,260.512L520.377,259.78L521.636,258.098L523.142,257.061L524.199,257.41L526.14,256.857L526.359,255.35L524.909,254.377L526.146,253.947L527.479,254.681L528.444,255.889L530.158,256.642L530.833,256.343L532.027,257.25L533.454,256.408L534.236,256.662L534.849,256.099L535.587,257.554L534.709,259.128L533.651,260.318L532.877,260.417L532.893,261.59L531.953,263.055L530.867,264.499L530.843,265.321L532.206,266.94L533.661,267.875L534.535,268.883L535.674,270.61L536.283,270.605L537.222,271.349L537.321,272.25L539.119,273.234L540.813,272.24L541.655,270.679L542.424,269.386L543.089,267.786L544.311,265.46L544.33,264.042L544.676,263.194L544.788,261.511L545.534,259.298L546.069,258.7L545.921,257.719L546.742,256.158L547.443,254.537L547.643,253.697L548.65,252.588L549.022,254.032L548.842,255.884L549.328,256.238L549.181,257.48L549.683,258.974L549.506,260.641L549.201,261.704L549.474,264.008L551.129,262.901L551.569,264.142L552.343,265.287L551.802,266.584L551.64,269.085L551.584,270.541L552.035,270.895L551.929,273.382L551.282,274.89L551.394,276.851L553.256,278.364L554.34,279.737L555.363,280.991L554.843,281.688L555.446,283.493L555.157,286.593L556.242,285.963L556.648,287.202L557.336,286.762L556.542,289.785L557.347,291.533L557.885,292.618L558.567,294.908L558.161,297.176L557.488,298.779L556.541,300.511L556.399,302.885L555.06,305.347L554.048,306.632L552.208,309.095L551.41,310.673L549.931,312.634L547.63,315.117L545.36,316.449L543.39,318.545L541.919,319.876L539.917,322.19L538.318,323.518L536.558,325.505L535.124,327.325L534.679,328.158L532.937,329.07L530.647,329.167L528.102,330.24L526.521,331.251Z" fill="rgb(152, 207, 208)"/><path aria-label="pop_density: 9.165512785; id: 68; alpha-3: BOL" role="graphics-symbol" aria-roledescription="geoshape" transform="translate(0,0)" d="M93.022,287.715L91.555,288.106L90.058,284.164L88.39,280.937L88.65,278.144L87.341,276.92L86.758,274.831L85.43,272.855L86.388,269.712L85.159,267.262L85.537,266.277L85.029,265.192L85.713,263.73L85.497,261.232L85.393,259.168L85.771,258.172L83.459,253.428L85.106,253.677L86.23,253.613L86.647,252.718L88.475,251.523L89.555,250.412L92.391,249.911L92.321,252.128L92.676,253.263L92.652,255.24L95.256,257.878L97.748,258.367L98.702,259.462L100.232,260.044L101.213,260.899L102.586,260.87L103.93,261.739L104.182,263.437L104.695,264.29L104.842,265.554L104.212,265.604L105.401,269.006L109.578,269.124L109.437,270.812L109.796,271.96L111.063,272.777L111.78,274.581L111.668,276.861L111.226,278.129L111.642,279.776L111.046,280.372L110.9,279.483L108.708,278.007L106.703,277.963L103.064,278.804L102.384,281.342L102.552,282.89L102.22,286.326L101.78,285.711L99.333,285.595L98.863,287.894L97.279,285.827L94.369,285.129Z" fill="rgb(85, 169, 168)"/><path aria-label="pop_density: 3.541368906; id: 72; alpha-3: BWA" role="graphics-symbol" aria-roledescription="geoshape" transform="translate(0,0)" d="M298.769,285.871L295.602,287.976L293.544,290.108L292.698,291.999L291.988,293.064L290.815,293.29L290.352,294.645L290.075,295.525L288.676,296.184L286.972,296.045L286.017,295.252L285.15,294.913L284.082,295.568L283.478,296.918L282.423,297.762L281.29,299.017L279.769,299.302L279.362,298.318L279.663,296.604L278.566,293.917L278.018,293.496L278.448,285.178L280.559,285.081L281.096,274.806L282.709,274.713L286.083,273.696L286.852,274.89L288.282,273.755L288.944,273.745L290.189,273.091L290.568,273.308L291.282,275.631L291.69,276.146L292.273,277.821L294.525,280.991L295.425,281.303L295.361,282.316L295.874,284.139L297.499,284.576Z" fill="rgb(144, 204, 204)"/><path aria-label="pop_density: 7.064432245; id: 140; alpha-3: CAF" role="graphics-symbol" aria-roledescription="geoshape" transform="translate(0,0)" d="M269.62,198.796L271.433,198.575L271.836,197.812L272.201,197.867L272.758,198.54L275.517,197.405L276.434,196.251L277.565,195.213L277.324,194.17L277.937,193.899L280.07,194.08L282.108,192.712L283.622,189.484L284.705,188.289L286.081,187.785L286.36,189.049L287.673,190.894L287.711,192.101L287.385,193.333L287.549,194.255L288.328,195.107L290.037,196.401L291.268,197.601L291.304,198.565L292.818,200.112L293.763,201.394L294.351,203.18L296.024,204.357L296.388,205.298L295.67,205.615L294.254,205.545L292.588,205.233L291.765,205.49L291.449,206.209L290.734,206.3L289.851,205.671L287.413,207.156L286.4,206.854L286.1,207.086L285.459,208.884L283.806,208.305L282.189,208.007L280.77,206.909L278.939,205.902L277.764,206.859L276.918,208.37L276.736,210.446L275.318,210.28L273.819,209.781L272.507,211.359L271.359,214.132L271.124,213.264L271.022,211.908L270.006,210.95L269.177,209.413L268.987,208.345L267.927,206.789L268.103,205.902L267.87,204.649L268.016,202.345L268.542,201.807Z" fill="rgb(106, 181, 180)"/><path aria-label="pop_density: 3.752786328; id: 124; alpha-3: CAN" role="graphics-symbol" aria-roledescription="geoshape" transform="translate(0,0)" d="M117.567,91.947L115.552,90.92L115.388,90.109L116.375,89.363L116.591,90.539L117.837,90.862L119.597,90.797L118.315,91.791ZM121.426,84.489L119.336,83.75L118.083,82.649L118.793,82.456L120.959,83.039L122.449,84.016L122.336,84.445ZM6.668,86.178L4.463,85.102L4.556,84.27L3.569,83.45L3.772,82.786L2.234,82.365L2.571,81.108L3.174,80.573L4.657,81.076L5.49,81.424L7,81.671L6.972,82.471L7.004,83.576L8.081,84.544L7.848,85.849ZM135.663,90.371L134.571,89.917L135.602,87.95L135.185,87.647L132.348,89.729L131.259,89.644L132.945,88.517L131.349,87.934L129.306,88.075L125.722,88.003L125.686,87.296L127.139,86.459L126.565,85.817L128.633,84.397L131.886,80.694L133.496,79.39L135.355,78.604L136.154,78.704L135.575,79.321L134.081,80.764L132.139,82.79L133.61,82.008L134.662,82.503L133.73,83.315L135.136,83.956L136.177,83.386L137.761,84.107L136.618,85.833L138.04,85.429L137.873,86.684L137.978,88.165L136.534,90.281ZM0.862,77.361L0.149,77.358L0,76.33L0.282,75.301L0.03,74.609L0.62,73.637L1.387,72.938L1.95,73.22L3.809,73.045L0.936,75.558ZM105.346,57.584L104.733,57.423L104.702,56.856L104.872,56.725L105.901,56.16L106.539,56.201L106.678,56.587ZM100.48,56.584L99.361,56.543L99.383,56.033L101.238,55.171L103.444,55.19L103.144,55.549ZM97.752,54.917L98.041,53.841L95.721,54.018L97.835,53.12L99.171,51.713L101.027,50.111L102.046,50.254L101.714,51.017L102.745,50.748L103.292,51.206L104.548,51.812L105.94,52.366L105.435,53.221L106.715,53.08L107.416,53.681L105.563,54.256L103.391,53.817L103.115,53.001L100.785,53.965ZM116.735,47.812L116.972,47.008L118.331,46.101L119.908,45.879L120.764,46.322L120.254,47.016L119.905,47.243L118.538,47.728ZM89.489,45.135L87.919,44.661L86.51,44.833L85.157,44.136L86.98,43.663L88.708,43.01L89.862,43.437L90.484,43.709L90.647,43.998L90.978,44.588ZM105.793,45.092L107.389,43.401L109.417,43.519L111.449,43.742L112.826,44.504L112.268,45.278L110.422,46.126L110.791,46.991L109.939,47.793L105.944,48.963L103.56,49.224L102.374,48.714L101.191,49.567L98.46,51.026L97.36,51.797L94.522,53.004L92.138,53.123L90.229,53.891L89.138,55.086L87.065,55.319L83.819,56.84L80.28,58.999L78.398,60.543L76.485,62.862L78.707,63.201L78.043,65.114L77.7,66.688L80.388,66.275L82.947,67.181L84.119,67.983L84.691,68.984L86.48,69.573L87.748,70.474L90.552,70.598L92.32,70.809L90.909,72.689L90.162,74.906L90.04,77.411L91.557,79.568L93.339,78.827L95.547,76.504L96.561,72.997L95.981,71.847L99.37,70.835L102.208,69.327L104.026,67.85L104.712,66.448L104.624,64.689L103.527,63.153L106.856,61.052L107.298,59.272L108.778,56.284L110.216,55.849L112.654,56.361L114.211,56.543L115.884,56.049L116.982,56.686L118.296,57.791L118.337,58.537L121.185,58.684L120.166,60.323L119.268,62.845L120.633,63.16L121.199,64.359L124.257,63.228L127.061,61.016L128.663,60.1L129.012,61.869L129.884,64.453L130.559,66.94L129.24,68.262L130.993,69.461L132.011,70.689L134.55,71.245L135.387,71.939L135.323,73.793L136.582,74.085L136.967,74.921L136.129,77.438L134.502,78.288L132.909,79.085L129.619,79.898L126.606,81.792L123.375,82.169L119.676,81.679L116.95,81.663L115,81.823L112.758,83.493L109.977,84.532L105.983,87.667L102.913,89.88L104.665,89.485L108.952,86.346L113.642,84.377L116.481,84.147L117.649,85.297L115.278,86.889L114.869,89.468L114.799,91.293L116.804,92.508L120.044,92.154L122.88,89.432L122.392,91.186L123.309,92.067L120.426,93.668L115.725,95.129L113.486,96.13L110.731,97.922L109.341,97.737L110.013,95.635L114.045,93.601L110.985,93.68L108.768,93.979L108.059,92.595L109.349,89.293L108.802,88.598L107.382,89.004L107.022,88.375L104.854,90.191L103.524,92.079L102.409,93.191L101.456,93.568L100.801,93.693L100.369,94.3L96.874,94.3L93.987,94.316L92.944,94.77L90.195,96.549L89.882,96.743L88.87,97.715L87.115,97.711L85.228,97.724L84.201,98.117L84.3,98.607L84.156,99.375L84.017,99.63L80.985,100.878L78.832,101.276L76.019,102.63L75.531,102.63L75.041,102.231L74.977,101.866L75.129,101.605L75.928,100.72L77.428,99.337L78.628,97.859L79.198,95.698L79.81,93.465L78.375,92.319L78.818,91.886L78.683,91.585L78.169,91.585L77.974,91.203L78.158,90.629L77.671,90.879L77.201,90.805L77.434,90.563L77.111,90.326L77.242,89.693L76.176,88.923L75.081,88.124L73.744,87.199L72.462,86.338L70.447,87.01L69.826,87.034L67.884,86.414L66.214,86.724L64.834,85.989L63.161,85.613L61.955,85.469L61.617,85.07L62.056,83.778L61.428,83.79L60.886,84.691L57.077,84.691L50.779,84.691L44.527,84.691L39.01,84.691L33.486,84.691L28.062,84.691L22.452,84.691L20.644,84.691L15.18,84.691L9.961,84.691L9.713,84.687L7.964,82.389L7.464,81.389L4.959,80.437L5.661,78.415L7.121,77.026L5.676,76.068L6.985,74.276L6.329,72.678L7.352,71.557L9.319,70.514L10.587,69.161L8.984,67.811L9.679,65.429L10.183,63.955L9.622,63.04L9.398,62.214L9.67,61.18L7.259,61.828L4.364,62.951L4.364,61.632L4.204,60.761L3.223,60.213L1.657,60.157L15.063,49.663L23.626,43.66L25.899,44.027L27.213,44.772L28.59,44.914L30.838,44.266L33.338,43.789L35.32,43.975L38.5,43.31L41.477,42.934L41.656,43.557L43.255,43.205L44.544,42.505L45.362,42.663L46.098,44.014L49.449,42.987L48.148,44.138L50.327,43.887L51.471,43.442L53.183,43.529L54.675,44.169L57.516,44.738L59.29,45.002L60.898,44.901L62.006,45.702L58.929,46.496L61.304,46.845L65.674,46.653L67.293,46.371L67.858,47.346L70.431,46.521L69.621,45.839L71.207,45.297L73.14,45.225L74.533,45.068L75.352,45.444L75.96,46.311L77.805,46.183L79.766,46.911L82.415,46.653L84.618,46.691L85.44,45.693L87.075,45.417L88.91,45.955L87.41,47.491L89.642,46.194L90.83,46.237L93.063,44.648L92.379,43.701L91.243,43.091L93.035,41.471L95.855,40.445L97.563,40.67L98.422,41.294L98.821,42.939L96.767,43.678L99.276,43.988L97.777,45.581L100.945,44.354L101.839,45.358L100.317,46.543L100.836,47.647L103.474,46.466ZM70.162,45.1L66.038,45.334L63.154,45.484L63.196,44.743L61.631,44.321L60.083,44.493L59.7,43.284L60.895,43.126L63.524,42.871L65.558,42.937L67.821,42.678L65.35,42.333L62.014,42.45L59.934,42.42L59.831,41.884L64.003,41.306L61.694,41.328L59.595,40.953L62.19,39.911L63.914,39.372L68.861,38.567L70.019,38.82L68.492,39.445L72.249,39.04L73.434,39.717L75.929,39.031L76.726,39.47L76.307,40.822L77.731,40.246L78.358,38.86L79.866,38.669L81.058,38.878L82.051,39.417L81.425,40.755L80.741,41.761L82.434,42.485L84.379,43.187L83.503,43.853L80.893,43.977L81.23,44.569L80.11,45.143L77.62,44.896L75.469,44.475L73.609,44.569ZM82.227,39.299L81.053,38.378L81.767,38.196L83.766,38.144L84.529,38.428ZM119.974,39.324L119.626,39.243L118.654,38.543L119.142,38.077L119.911,37.992L123.097,38.129L124.974,38.845L124.792,39.211L123.272,39.172L121.729,39.143ZM127.792,57.017L123.82,56.262L121.017,55.177L119.641,54.281L120.543,53.764L118.782,52.833L117.06,51.968L116.726,52.484L111.913,52.769L111.014,52.155L113.019,50.857L116.006,50.827L119.408,50.603L119.328,49.986L120.481,49.135L123.675,47.505L123.776,46.782L123.596,46.226L121.841,45.455L119.174,44.92L120.46,44.525L119.626,43.573L118.37,43.486L117.611,42.975L116.433,43.419L113.544,43.614L108.367,43.276L105.594,42.836L103.38,42.612L102.63,42.098L104.815,41.437L102.717,41.432L103.65,40.011L105.971,38.809L107.997,38.277L112.066,37.934L110.188,38.771L110.535,39.605L112.901,38.532L117.068,38.003L118.32,39.358L117.302,40.251L120.559,39.851L122.411,39.313L125.07,39.999L126.553,40.66L126.245,41.277L129.243,40.956L130.082,41.866L133.242,42.445L134.11,43.043L134.528,44.467L131.23,45.193L134.108,46.232L136.307,46.587L137.561,48.096L139.934,48.206L138.727,49.388L134.748,51.403L133.263,50.653L131.85,49.003L129.692,49.216L128.848,50.196L129.849,51.209L131.49,52.022L131.852,52.496L131.821,54.287L130.482,55.618L128.739,55.114L125.601,53.644L126.9,55.227L127.913,56.357ZM90.239,41.36L88.94,41.239L88.504,40.701L86.043,39.637L86.56,39.206L89.351,39.372L88.726,38.508L91.15,37.884L92.568,38.153L95.329,37.99L95.292,38.365L93.25,38.992L94.831,39.568L93.244,40.81ZM97.386,40.302L95.763,40.251L96.117,39.06L96.842,38.406L98.188,37.861L99.992,37.517L102.946,37.559L105.374,37.867L102.019,39.024L100.015,39.283ZM52.891,41.893L52.946,41.263L50.553,40.519L51.991,39.934L54.371,38.95L56.828,38.094L56.513,37.32L61.64,37.126L63.335,37.384L66.909,37.453L67.823,37.818L68.663,38.358L66.411,38.687L61.605,39.623L58.514,40.587L57.707,41.2ZM101.099,36.951L99.121,36.86L97.74,36.543L99.097,36.009L101.485,35.696L102.275,36.106L102.384,36.482ZM93.432,36.579L92.123,36.389L92.953,35.704L90.523,35.794L91.486,34.918L92.961,34.951L95.528,34.578L97.427,34.641L97.703,34.5L98.189,35.006L97.569,35.585L95.925,36.457ZM72.728,37.195L73.071,36.794L76.728,36.264L70.103,36.405L68.397,36.192L71.867,35.07L73.618,34.761L77.082,35.134L78.709,35.809L81.074,35.898L80.449,34.815L82.255,34.42L83.539,34.544L83.343,35.068L83.389,35.469L84.885,35.279L86.303,35.329L85.858,35.89L84.301,36.451L79.239,36.636L74.951,37.165ZM109.456,37.197L107.293,37.044L103.902,36.653L104.112,35.999L104.559,35.426L103.68,34.936L100.921,34.802L99.678,34.465L100.705,34.03L103.515,34.096L104.684,34.438L107.448,34.436L108.277,34.793L107.504,35.21L108.855,35.467L109.473,35.739L111.33,35.79L113.304,35.888L115.807,35.637L118.79,35.538L121.011,35.62L122.122,36.058L121.985,36.549L120.792,36.87L118.411,37.134L116.721,36.984L112.423,37.174ZM64.12,35.407L62.553,35.163L66.126,34.343L69.968,33.665L72.083,33.681L74.205,33.531L72.901,34.331L71.3,34.706L69.914,34.759L66.625,35.233ZM104.519,33.688L101.98,33.622L101.937,33.34L104.716,33.355L105.482,33.541L105.184,33.658ZM79.654,33.771L78.039,33.442L79.592,33.125L81.753,33.025L83.506,33.178L82.643,33.478ZM82.612,32.78L80.319,32.778L80.53,32.642L82.328,32.362L83.01,32.404L84.547,32.594ZM100.739,33.325L99.883,33.093L99.721,32.731L100.08,32.341L101.82,32.379L102.552,32.44L103.818,32.768L103.032,33.12ZM97.526,33.267L95.397,33.157L93.509,32.84L90.47,32.806L92.163,32.523L90.786,32.299L91.132,31.951L93.674,32.074L96.979,32.407L97.482,32.858ZM110.173,32.964L107.446,32.84L106.397,32.455L106.801,32.12L108.162,31.882L105.646,31.888L104.477,31.598L104.068,31.215L105.443,30.856L106.665,30.619L108.121,30.564L107.73,30.392L110.921,30.354L112.187,30.76L114.286,30.93L116.347,31.083L116.829,31.638L118.178,31.92L116.009,32.188L112.701,32.895ZM122.314,35.095L118.927,34.789L114.621,34.959L112.659,34.826L110.06,34.769L110.435,34.249L113.275,34.012L113.368,33.274L114.291,33.205L117.554,33.639L116.32,32.999L114.273,32.814L115.783,32.447L118.455,32.226L119.174,31.912L117.601,31.57L117.484,31.139L121.17,31.175L122.157,31.264L124.587,30.966L121.621,30.874L116.809,30.925L114.702,30.658L113.914,30.352L112.581,30.138L112.561,29.898L114.711,29.768L116.305,29.747L119.064,29.638L121.302,29.398L122.928,29.431L124.186,29.612L125.564,29.269L127.434,29.172L129.899,29.107L134.009,29.083L134.661,29.146L138.615,29.046L141.473,29.084L144.338,29.121L147.871,29.168L150.685,29.244L153.001,29.413L152.809,29.584L149.294,29.875L145.918,30.015L144.563,30.176L147.507,30.172L143.934,30.624L141.536,30.844L138.614,31.517L135.664,31.659L134.63,31.837L130.388,31.933L132.176,32.045L131.076,32.206L131.792,32.667L130.175,32.995L127.773,33.274L126.739,33.67L124.498,33.978L124.467,34.217L126.9,34.176L126.689,34.436Z" fill="rgb(142, 203, 203)"/><path aria-label="pop_density: 5.840804129; id: 266; alpha-3: GAB" role="graphics-symbol" aria-roledescription="geoshape" transform="translate(0,0)" d="M260.464,232.742L258.208,229.738L256.749,227.277L255.408,224.2L255.481,223.212L255.967,222.258L256.501,220.089L256.946,217.879L257.694,217.703L260.912,217.733L260.889,214.147L261.939,213.955L263.286,214.354L264.59,213.97L264.87,214.132L264.706,215.433L265.331,216.971L266.979,216.729L267.529,217.319L266.577,220.77L267.62,222.536L267.863,224.861L267.571,226.843L266.89,228.25L264.94,228.124L263.766,226.697L263.579,228.013L262.089,228.381L261.33,229.128L262.158,231.099Z" fill="rgb(119, 189, 188)"/><path aria-label="pop_density: 0.137736631; id: 304; alpha-3: GRL" role="graphics-symbol" aria-roledescription="geoshape" transform="translate(0,0)" d="M161.328,60.687L159.496,59.088L156.192,59.078L155.042,58.019L154.755,56.163L153.013,53.86L152.766,52.681L153.331,51.091L151.971,49.492L153.185,48.249L152.458,47.664L155.005,45.766L157.615,45.177L158.562,44.525L159.514,43.332L157.501,43.869L156.555,44.097L155.079,44.315L153.508,43.815L153.996,42.793L155.038,42.011L156.433,41.989L159.257,42.378L157.215,41.456L156.172,40.97L154.585,41.169L153.564,40.817L155.984,39.534L155.403,39.035L154.82,38.131L153.944,36.807L152.443,36.338L152.794,35.847L149.467,35.178L146.53,35.096L142.721,35.142L139.215,35.225L137.864,34.871L135.998,34.19L139.943,33.86L142.795,33.806L137.056,33.539L134.274,33.131L134.802,32.755L140.416,32.302L145.812,31.868L146.594,31.553L143.156,31.249L144.62,30.925L149.754,30.386L151.784,30.307L151.477,29.985L154.809,29.803L159.024,29.697L163.157,29.691L164.483,29.902L168.291,29.534L171.346,29.782L173.204,29.835L175.874,30.061L172.887,29.691L173.235,29.413L177.935,29.051L182.612,29.078L184.419,28.867L189.16,28.814L199.788,28.883L208.008,29.352L205.462,29.597L200.316,29.626L193.053,29.691L193.683,29.811L198.478,29.736L202.452,29.973L205.134,29.762L206.184,30.01L204.58,30.432L208.097,30.159L214.705,29.886L218.723,30.02L219.433,30.329L213.81,30.874L213.003,31.059L208.615,31.2L211.762,31.239L210.026,31.864L208.777,32.453L208.564,33.538L210.083,34.215L207.885,34.258L205.493,34.599L207.95,35.184L208.056,36.162L206.508,36.272L208.121,37.316L204.908,37.405L206.455,37.919L205.876,38.371L203.787,38.572L201.76,38.576L203.353,39.474L203.224,40.08L200.475,39.518L199.623,39.881L201.512,40.225L203.23,41.08L203.516,42.241L200.788,42.525L199.784,41.96L198.17,41.133L198.409,42.11L196.464,42.886L200.395,42.949L202.442,43.03L198.073,44.354L193.606,45.589L188.967,46.139L187.278,46.145L185.483,46.768L182.751,48.512L178.986,49.701L177.878,49.77L175.633,50.193L173.22,50.597L171.451,51.681L170.951,52.934L169.687,54.126L166.491,55.602L166.591,57.075L165.264,58.658L163.717,60.567Z" fill="rgb(187, 223, 223)"/><path aria-label="pop_density: 3.835407671; id: 328; alpha-3: GUY" role="graphics-symbol" aria-roledescription="geoshape" transform="translate(0,0)" d="M104.408,195.995L105.801,197.084L107.063,199.017L107.058,200.545L107.888,200.615L109.012,202.068L109.838,203.099L109.397,205.776L108.029,206.552L108.128,207.252L107.681,208.788L108.61,210.95L109.318,210.955L109.581,212.634L110.889,215.226L110.354,215.332L109.131,215.08L108.405,215.872L107.397,216.396L106.695,216.522L106.451,217.107L105.361,216.961L104.013,215.564L103.872,214.182L103.331,212.674L103.733,210.144L104.372,209.091L103.908,207.71L103.157,207.257L103.484,205.953L102.998,205.268L101.841,205.399L100.43,203.144L101.059,202.325L101.078,200.952L102.457,200.474L103.03,199.921L102.328,198.816L102.573,197.737Z" fill="rgb(141, 202, 202)"/><path aria-label="pop_density: 3.172069825; id: 352; alpha-3: ISL" role="graphics-symbol" aria-roledescription="geoshape" transform="translate(0,0)" d="M205.94,54.098L203.875,53.829L199.515,53.254L201.249,52.46L197.975,51.591L200.854,51.251L200.895,50.736L197.679,50.333L199,49.216L201.421,48.966L203.622,50.123L206.18,49.193L208.06,49.675L210.758,48.769L213.326,48.889L212.809,49.991L214.428,51.177L212.184,52.53L207.383,53.767Z" fill="rgb(149, 206, 206)"/><path aria-label="pop_density: 6.046227359; id: 398; alpha-3: KAZ" role="graphics-symbol" aria-roledescription="geoshape" transform="translate(0,0)" d="M373.075,101.135L372.136,101.601L370.194,103.37L369.962,105.194L369.237,105.212L368.299,104L365.798,103.918L364.707,101.836L363.76,101.819L363.048,99.29L360.118,97.467L356.905,97.661L354.778,98.024L352.215,95.782L350.352,94.85L346.832,93.092L346.409,92.881L342.001,94.329L344.783,103.56L343.824,103.685L341.912,101.695L340.407,100.985L338.358,101.511L337.726,102.355L337.458,101.738L337.649,100.686L337.043,99.808L334.581,98.951L333.113,96.713L331.883,96.083L331.601,95.28L333.515,95.514L333.081,93.714L334.573,93.315L336.335,93.68L335.96,91.301L335.162,89.807L333.325,89.921L331.559,89.334L329.711,90.395L328.108,90.903L327.038,90.51L326.881,89.269L325.234,87.667L323.869,87.736L321.844,86.122L322.389,84.333L321.714,83.857L322.407,81.303L324.69,82.645L324.391,80.955L327.303,78.465L330.095,78.407L334.63,79.987L337.112,80.916L338.681,79.948L341.529,79.901L344.312,81.092L344.569,80.41L347.159,80.507L347.17,79.421L343.617,77.859L344.888,76.759L344.298,76.148L345.759,75.569L343.828,74.047L344.307,73.294L350.549,72.534L351.154,71.995L355.145,71.194L356.263,70.299L359.635,70.762L361.354,73.015L362.916,72.482L365.565,73.231L366.045,74.433L367.683,74.309L370.981,72.234L370.713,72.919L373.906,74.624L380.975,80.356L381.304,79.159L384.503,80.476L386.786,79.89L388.016,80.301L389.613,81.632L391.131,82.082L392.451,83.07L394.637,82.759L396.39,84.187L395.828,85.753L394.418,85.977L395.564,88.363L395.07,89.448L390.977,88.659L391.699,92.996L390.976,93.539L387.666,94.52L391.25,98.832L390.21,99.485L390.957,100.921L389.616,100.55L388.275,99.647L385.313,99.383L382.094,99.315L381.511,99.592L378.359,98.54L377.467,99.057L377.735,100.541L374.239,99.672L373.102,100.03Z" fill="rgb(117, 188, 187)"/><path aria-label="pop_density: 3.611739432; id: 434; alpha-3: LBY" role="graphics-symbol" aria-roledescription="geoshape" transform="translate(0,0)" d="M267.567,153.695L266.095,154.758L264.844,153.192L261.443,151.962L260.456,150.182L258.746,148.861L257.77,149.384L256.972,147.802L256.855,146.591L255.554,144.534L256.353,143.359L256.121,141.597L256.346,140.068L256.149,138.793L256.445,136.524L256.291,135.238L255.54,132.798L256.53,132.16L256.668,130.997L256.405,129.865L257.778,128.81L258.379,127.936L259.342,127.153L259.369,125.066L261.807,126.002L262.655,125.768L264.384,126.218L267.159,127.434L268.256,129.865L270.138,130.394L273.109,131.546L275.397,132.91L276.36,132.197L277.26,130.932L276.629,128.837L277.174,127.507L278.549,126.232L279.931,125.865L282.735,126.421L283.539,127.637L284.307,127.646L284.997,128.112L287.063,128.435L287.648,129.337L287.017,130.649L287.439,131.825L287.057,133.526L287.862,135.754L288.631,145.698L289.326,156.163L289.659,161.903L287.185,161.913L287.224,163.124L278.396,157.613L269.649,152.136Z" fill="rgb(143, 203, 204)"/><path aria-label="pop_density: 1.773990062; id: 496; alpha-3: MNG" role="graphics-symbol" aria-roledescription="geoshape" transform="translate(0,0)" d="M397.004,83.992L398.708,83.588L401.048,81.585L403.17,80.5L405.179,81.209L407.089,81.24L408.966,82.322L410.839,82.408L413.841,82.991L414.604,81.377L412.999,80.022L413.321,77.663L415.959,78.6L417.772,78.865L420.291,79.452L421.789,81.174L425.016,82.145L426.455,81.718L428.547,81.412L430.585,81.718L433.138,82.834L435.06,84.028L436.749,84.004L439.325,84.385L440.608,83.806L442.749,83.418L444.24,81.78L445.511,82.027L447.043,82.806L449.078,82.613L449.482,84.377L449.853,86.736L451.01,87.707L451.852,87.409L453.944,87.78L454.749,86.897L456.782,87.659L459.651,89.334L460.048,90.191L458.385,89.921L455.881,90.24L455.031,90.928L454.718,92.537L452.456,93.485L451.388,94.787L449.123,94.287L447.922,94.067L447.899,95.656L449.084,96.608L449.885,97.429L449.045,98.269L448.439,99.609L446.694,100.494L443.85,100.588L441.213,101.464L439.679,102.828L438.405,102.038L436.064,102.042L432.401,100.507L430.304,100.132L427.923,100.481L423.652,99.915L421.559,99.974L419.684,98.485L417.641,96.192L416.325,95.916L413.234,94.379L410.504,94.033L408.041,93.614L406.82,92.554L406.065,89.721L403.741,87.788L400.613,86.893L398.385,85.637Z" fill="rgb(166, 214, 215)"/><path aria-label="pop_density: 3.356941884; id: 478; alpha-3: MRT" role="graphics-symbol" aria-roledescription="geoshape" transform="translate(0,0)" d="M209.44,177.566L208.04,175.559L206.774,173.408L205.355,172.633L204.338,171.779L203.128,171.808L202.056,172.445L200.985,172.193L200.208,173.126L200.067,171.557L200.72,170.123L201.07,167.383L200.932,164.524L200.719,163.085L200.987,161.644L200.481,160.274L199.402,159.033L199.903,158.075L208.283,158.094L208.007,153.96L208.577,152.493L210.582,152.237L210.752,144.987L217.653,145.135L217.771,140.882L225.546,147.696L222.312,147.744L223.145,160.065L224.04,172.573L224.412,172.934L223.908,174.98L215.189,175.025L214.849,175.673L214.015,175.48L212.775,176.059L211.271,175.242L210.581,175.312L210.18,177.035Z" fill="rgb(146, 205, 205)"/><path aria-label="pop_density: 2.773020442; id: 516; alpha-3: NAM" role="graphics-symbol" aria-roledescription="geoshape" transform="translate(0,0)" d="M269.989,304.185L268.542,302.082L267.826,300.037L267.48,297.304L267.052,295.262L266.519,290.898L266.592,287.488L266.379,285.929L265.589,284.751L264.555,282.374L263.528,278.921L263.113,277.106L261.428,274.276L261.346,272.048L262.403,271.492L263.709,270.999L265.111,271.083L266.371,272.398L266.703,272.196L275.481,272.068L276.926,273.465L282.146,273.873L286.167,272.688L287.973,272.029L289.368,272.196L290.186,272.85L290.189,273.091L288.944,273.745L288.282,273.755L286.852,274.89L286.083,273.696L282.709,274.713L281.096,274.806L280.559,285.081L278.448,285.178L278.018,293.496L277.402,303.865L275.454,305.286L274.327,305.488L273.048,304.962L272.123,304.759L271.837,303.573L271.06,302.809Z" fill="rgb(154, 208, 209)"/><path aria-label="pop_density: 8.991922456; id: 512; alpha-3: OMN" role="graphics-symbol" aria-roledescription="geoshape" transform="translate(0,0)" d="M355.475,168.769L355.607,169.94L354.646,170.753L353.425,170.477L352.071,171.458L351.089,171.626L350.178,169.591L347.99,164.803L354.11,161.913L354.798,156.163L353.544,154.139L353.436,152.99L353.887,151.808L353.724,150.648L354.602,150.086L354.161,149.692L354.054,147.85L355.132,147.835L356.385,149.773L357.726,150.802L359.334,151.177L360.674,151.693L361.881,153.328L362.598,154.275L363.419,154.637L363.507,155.276L362.979,156.982L362.754,157.788L361.981,158.707L361.443,160.674L360.45,160.523L360.091,161.21L359.938,162.675L360.439,164.607L360.28,164.96L359.286,164.95L358.063,166.033L358.014,167.447L357.593,168.061L356.244,168.036ZM354.488,145.607L353.937,144.644L354.384,143.687L354.689,143.93L354.684,145.092Z" fill="rgb(86, 170, 169)"/><path aria-label="pop_density: 3.365384615; id: 740; alpha-3: SUR" role="graphics-symbol" aria-roledescription="geoshape" transform="translate(0,0)" d="M109.838,203.099L112.462,203.698L112.72,203.159L114.515,202.943L116.855,203.743L115.63,206.3L115.751,208.335L116.577,210.104L116.162,211.384L115.947,212.745L115.363,213.995L114.106,213.365L113.059,213.673L112.171,213.405L111.936,214.268L112.295,214.863L112.089,215.468L110.889,215.226L109.581,212.634L109.318,210.955L108.61,210.95L107.681,208.788L108.128,207.252L108.029,206.552L109.397,205.776Z" fill="rgb(146, 205, 205)"/><path aria-label="pop_density: 8.915978399; id: 148; alpha-3: TCD" role="graphics-symbol" aria-roledescription="geoshape" transform="translate(0,0)" d="M267.634,182.728L267.825,181.34L266.424,181.275L266.385,179.387L265.459,178.3L266.312,174.446L269.007,171.695L269.015,167.909L269.655,162.035L270.075,160.796L269.144,159.806L269.081,158.891L268.253,158.148L267.567,153.695L269.649,152.136L278.396,157.613L287.224,163.124L287.865,174.659L285.979,174.456L285.067,176.609L284.56,178.419L285.039,179.104L284.347,180.003L284.638,181.221L284.111,182.444L283.924,183.525L284.69,183.355L285.181,184.491L285.255,186.202L286.084,187.071L286.081,187.785L284.705,188.289L283.622,189.484L282.108,192.712L280.07,194.08L277.937,193.899L277.324,194.17L277.565,195.213L276.434,196.251L275.517,197.405L272.758,198.54L272.201,197.867L271.836,197.812L271.433,198.575L269.62,198.796L269.951,197.993L269.234,195.95L268.907,194.721L267.942,194.22L266.619,192.491L267.073,191.094L268.082,191.395L268.695,191.185L269.921,191.215L268.682,188.529L268.725,186.566L268.545,184.611Z" fill="rgb(87, 171, 170)"/><path aria-label="pop_density: 15.30600786; id: 24; alpha-3: AGO" role="graphics-symbol" aria-roledescription="geoshape" transform="translate(0,0)" d="M288.396,253.353L288.598,254.272L288.303,255.7L288.646,257.081L288.288,258.187L288.443,259.198L283.888,259.163L283.463,268.487L284.835,270.871L286.167,272.688L282.146,273.873L276.926,273.465L275.481,272.068L266.703,272.196L266.371,272.398L265.111,271.083L263.709,270.999L262.403,271.492L261.346,272.048L261.184,270.215L261.534,267.652L262.339,264.974L262.481,263.715L263.238,261.073L263.779,259.865L265.065,257.943L265.798,256.632L266.064,254.447L265.973,252.773L265.334,251.718L264.775,249.926L264.26,248.148L264.387,247.537L265.075,246.359L264.442,243.498L264.01,241.509L262.923,239.628L263.134,239.05L264.051,238.653L264.686,238.708L265.468,238.351L271.982,238.391L272.497,240.604L273.11,242.383L273.605,243.342L274.423,244.894L275.885,244.658L276.613,244.241L277.827,244.658L278.172,243.915L278.747,242.187L280.113,242.071L280.24,241.554L281.367,241.544L281.16,242.614L283.834,242.589L283.84,244.457L284.262,245.601L283.901,247.387L284.028,249.205L284.738,250.302L284.53,253.817L285.074,253.548L286.028,253.622L287.398,253.178ZM262.832,238.129L262.259,235.895L263.158,234.611L263.829,234.107L264.649,235.129L263.842,235.754L263.479,236.519L263.398,237.817Z" fill="rgb(33, 130, 130)"/><path aria-label="pop_density: 14.76674377; id: 32; alpha-3: ARG" role="graphics-symbol" aria-roledescription="geoshape" transform="translate(0,0)" d="M118.79,370.425L117.702,370.366L115.829,370.363L113.433,365.439L114.603,366.475L116.285,368.136L119.208,369.453L121.924,369.995L121.656,371.08L120.05,371.186ZM102.22,286.326L106.87,290.98L108.673,291.408L111.596,293.505L113.951,294.612L114.46,295.859L113.129,300.132L115.375,300.89L117.801,301.321L119.38,300.871L120.921,298.722L120.864,296.241L121.826,295.697L123.133,297.323L123.446,299.568L121.937,301.113L120.732,302.252L118.858,304.952L116.816,308.726L116.739,310.928L116.779,313.739L117.389,316.445L117.076,317.05L117.317,318.796L117.502,320.199L120.605,322.493L120.767,324.333L122.294,325.487L122.508,326.78L121.445,330.147L118.881,331.546L115.07,332.088L112.828,331.828L113.693,333.374L113.859,335.305L114.607,336.599L113.709,337.5L111.829,337.854L109.661,336.92L109.116,337.591L110.21,340.116L111.769,340.877L112.567,340.082L113.564,341.393L112.053,342.172L111.039,343.728L111.635,346.229L111.658,347.548L109.873,347.556L108.856,348.809L109.014,350.635L111.544,352.406L113.52,352.89L113.723,355.037L112.083,356.371L112.054,359.116L110.788,360.035L110.53,361.113L112.192,363.488L113.994,364.796L113.186,364.682L111.362,364.327L106.878,364.025L105.494,362.703L104.716,360.985L103.577,361.133L102.54,360.298L101.231,357.832L102.171,356.798L102.088,355.298L101.342,354.093L101.461,352.047L100.822,348.834L100.043,347.394L100.692,346.927L100.124,345.995L99.047,345.5L99.278,344.457L98.05,343.512L96.515,340.612L97.107,340.099L95.669,336.998L95.219,334.367L94.978,332.057L95.851,331.11L94.439,328.559L93.682,326.136L94.678,324.405L93.978,322.176L94.399,319.562L93.732,317.077L93.071,316.582L90.907,311.879L91.479,309.058L90.643,306.384L90.816,303.861L91.61,301.241L92.722,299.501L91.869,298.399L92.125,297.495L91.143,292.786L93.19,291.388L93.404,288.43L93.022,287.715L94.369,285.129L97.279,285.827L98.863,287.894L99.333,285.595L101.78,285.711Z" fill="rgb(37, 133, 134)"/><path aria-label="pop_density: 15.1249452; id: 84; alpha-3: BLZ" role="graphics-symbol" aria-roledescription="geoshape" transform="translate(0,0)" d="M43.256,168.258L43.316,167.83L43.596,167.697L43.932,168.041L45.012,166.288L45.431,166.249L45.363,166.676L45.772,166.691L45.594,167.476L45.026,168.735L45.137,169.182L44.736,170.226L44.831,170.502L44.342,171.976L43.79,172.746L43.384,172.84L42.796,173.853L42.147,173.853L42.848,170.561Z" fill="rgb(34, 131, 131)"/><path aria-label="pop_density: 18.91117479; id: 64; alpha-3: BTN" role="graphics-symbol" aria-roledescription="geoshape" transform="translate(0,0)" d="M427.567,139.832L428.673,140.725L429.006,142.446L427.314,142.527L425.496,142.342L424.293,142.779L422.103,141.716L421.905,141.152L422.712,139.076L423.637,138.368L425.31,139.015L426.433,139.081Z" fill="rgb(7, 107, 108)"/><path aria-label="pop_density: 11.83894583; id: 178; alpha-3: COG" role="graphics-symbol" aria-roledescription="geoshape" transform="translate(0,0)" d="M264.649,235.129L263.829,234.107L263.158,234.611L262.259,235.895L260.464,232.742L262.158,231.099L261.33,229.128L262.089,228.381L263.579,228.013L263.766,226.697L264.94,228.124L266.89,228.25L267.571,226.843L267.863,224.861L267.62,222.536L266.577,220.77L267.529,217.319L266.979,216.729L265.331,216.971L264.706,215.433L264.87,214.132L267.657,214.248L269.451,215.034L271.205,215.74L271.359,214.132L272.507,211.359L273.819,209.781L275.318,210.28L276.736,210.446L276.62,212.246L275.967,213.839L275.537,215.695L275.273,218.338L275.386,220.028L275.028,221.062L274.971,222.152L274.715,223.106L273.255,224.543L272.24,226.077L271.265,228.971L271.332,231.421L270.761,232.374L269.47,233.83L268.152,235.693L267.329,235.164L267.2,234.323L265.991,234.293L265.228,235.431Z" fill="rgb(55, 153, 152)"/><path aria-label="pop_density: 14.89163385; id: 12; alpha-3: DZA" role="graphics-symbol" aria-roledescription="geoshape" transform="translate(0,0)" d="M261.443,151.962L254.279,157.409L248.163,163.066L245.14,164.352L242.754,164.636L242.718,162.797L241.717,162.328L240.374,161.503L239.858,160.152L232.648,153.898L225.546,147.696L217.771,140.882L217.831,140.342L217.828,140.153L217.904,136.853L221.315,134.808L223.391,134.386L225.097,133.643L225.917,132.267L228.34,131.178L228.455,129.147L229.648,128.911L230.589,127.9L233.269,127.443L233.649,126.384L233.115,125.809L232.429,122.953L232.316,121.319L231.573,119.6L233.519,118.142L235.691,117.683L236.955,116.586L238.884,115.779L242.27,115.309L245.569,115.094L246.585,115.484L248.443,114.447L250.575,114.425L251.407,115.036L252.768,114.88L252.406,116.236L252.812,118.769L252.414,120.973L251.214,122.474L251.449,124.507L253.165,126.122L253.208,126.78L254.504,127.876L255.54,132.798L256.291,135.238L256.445,136.524L256.149,138.793L256.346,140.068L256.121,141.597L256.353,143.359L255.554,144.534L256.855,146.591L256.972,147.802L257.77,149.384L258.746,148.861L260.456,150.182Z" fill="rgb(36, 132, 133)"/><path aria-label="pop_density: 17.65054294; id: 246; alpha-3: FIN" role="graphics-symbol" aria-roledescription="geoshape" transform="translate(0,0)" d="M279.306,44.653L279.405,45.755L282.069,46.828L281.011,48.068L283.385,49.997L282.749,51.489L284.554,52.815L284.232,53.996L286.972,55.259L286.625,56.211L285.405,57.303L282.502,59.771L279.528,59.927L276.754,60.647L274.124,61.066L272.954,59.987L271.231,59.348L271.246,57.448L270.132,55.745L270.699,54.661L271.927,53.512L275.144,51.573L276.111,51.204L275.773,50.465L273.392,49.651L272.715,48.989L272.073,46.442L269.437,45.356L267.239,44.59L268.06,44.182L269.931,45.002L271.893,44.925L273.62,45.305L274.889,44.611L275.329,43.488L277.514,42.98L279.618,43.578Z" fill="rgb(19, 115, 116)"/><path aria-label="pop_density: 12.59639892; id: 466; alpha-3: MLI" role="graphics-symbol" aria-roledescription="geoshape" transform="translate(0,0)" d="M209.44,177.566L210.18,177.035L210.581,175.312L211.271,175.242L212.775,176.059L214.015,175.48L214.849,175.673L215.189,175.025L223.908,174.98L224.412,172.934L224.04,172.573L223.145,160.065L222.312,147.744L225.546,147.696L232.648,153.898L239.858,160.152L240.374,161.503L241.717,162.328L242.718,162.797L242.754,164.636L245.14,164.352L245.204,171.039L244.031,172.983L243.855,174.782L241.925,175.247L238.958,175.5L238.162,176.54L236.767,176.654L235.372,176.669L234.824,176.104L233.625,176.52L231.592,177.739L231.173,178.652L229.472,179.968L229.17,180.723L228.255,181.32L227.204,180.927L226.602,181.643L226.267,183.659L224.51,186.102L224.559,187.1L223.951,188.349L224.082,190.064L223.179,190.504L222.662,190.874L222.331,189.609L221.697,189.944L221.318,189.889L220.908,190.749L219.209,190.724L218.604,190.279L218.317,190.549L217.653,189.699L217.78,188.819L217.507,188.474L217.038,188.764L217.135,187.805L217.593,187.046L216.707,185.808L216.456,184.995L215.975,184.347L215.543,184.272L215.01,184.686L214.296,185.08L213.688,185.718L212.754,185.479L212.157,184.731L211.796,184.636L211.215,185.025L210.868,185.03L210.759,183.953L210.876,183.037L210.705,181.897L209.902,181.071L209.508,179.392Z" fill="rgb(51, 148, 148)"/><path aria-label="pop_density: 13.51203501; id: 540; alpha-3: NCL" role="graphics-symbol" aria-roledescription="geoshape" transform="translate(0,0)" d="M591.481,286.757L590.625,285.982L589.614,284.693L588.831,283.172L588.177,281.147L588.243,280.167L589.147,280.211L589.991,281.191L590.566,282.165L590.942,282.973L591.999,284.751L592.571,286.07Z" fill="rgb(45, 141, 142)"/><path aria-label="pop_density: 12.24599353; id: 562; alpha-3: NER" role="graphics-symbol" aria-roledescription="geoshape" transform="translate(0,0)" d="M240.666,185.434L240.707,183.415L238.187,182.748L238.114,181.325L236.886,179.407L236.595,178.072L236.767,176.654L238.162,176.54L238.958,175.5L241.925,175.247L243.855,174.782L244.031,172.983L245.204,171.039L245.14,164.352L248.163,163.066L254.279,157.409L261.443,151.962L264.844,153.192L266.095,154.758L267.567,153.695L268.253,158.148L269.081,158.891L269.144,159.806L270.075,160.796L269.655,162.035L269.015,167.909L269.007,171.695L266.312,174.446L265.459,178.3L266.385,179.387L266.424,181.275L267.825,181.34L267.634,182.728L267.023,182.897L266.971,183.834L266.562,183.898L265.021,180.679L264.508,180.559L262.832,182.205L261.127,181.345L259.945,181.176L259.322,181.589L258.039,181.499L256.767,182.753L255.658,182.823L252.989,181.305L251.967,182.026L250.849,181.977L250.021,180.868L247.819,179.769L245.481,180.117L244.919,180.753L244.622,182.444L243.999,183.629L243.862,186.257L242.184,184.561L241.396,184.571Z" fill="rgb(53, 150, 150)"/><path aria-label="pop_density: 16.00484499; id: 578; alpha-3: NOR" role="graphics-symbol" aria-roledescription="geoshape" transform="translate(0,0)" d="M282.864,43.895L280.485,44.512L279.306,44.653L279.618,43.578L277.514,42.98L275.329,43.488L274.889,44.611L273.62,45.305L271.893,44.925L269.931,45.002L268.06,44.182L267.239,44.59L266.313,44.653L266.302,45.688L263.379,45.433L263.134,46.322L261.659,46.316L260.837,47.477L259.568,49.334L257.459,51.776L258.116,52.384L257.65,53.095L256.063,53.065L255.214,54.776L255.579,57.265L256.729,58.237L256.424,60.527L255.17,61.889L254.539,63.05L253.299,61.814L250.153,64.155L247.917,64.634L245.522,63.593L244.825,61.429L244.104,56.943L245.546,55.729L249.709,54.176L252.708,52.312L255.332,49.869L258.633,46.644L261.005,45.441L264.805,43.501L267.96,42.843L270.442,42.922L272.404,41.707L275.128,41.771L277.71,41.483L282.707,42.55L280.908,42.947ZM267.31,33.735L264.791,33.498L265.681,33.24L264.768,32.926L267.58,32.733L268.23,33.097L270.299,33.321ZM258.273,34.445L255.147,33.801L256.349,33.438L254.221,33.151L251.409,32.345L250.248,31.643L253.929,31.338L254.726,31.636L256.676,31.624L257.137,31.334L259.136,31.305L260.923,31.601L265.606,32.264L262.227,32.631L261.617,33.348L260.441,33.538L259.957,34.403ZM267.53,31.864L263.449,31.718L263.145,31.481L261.182,31.465L259.605,31.083L263.755,30.859L265.779,31.052L267.088,30.812L270.585,31.012L273.354,31.3L271.477,31.76Z" fill="rgb(29, 125, 126)"/><path aria-label="pop_density: 16.58881167; id: 554; alpha-3: NZL" role="graphics-symbol" aria-roledescription="geoshape" transform="translate(0,0)" d="M553.191,351.459L551.516,351.406L551.072,350.611L549.195,350.438L549.732,349.545L552.444,347.731L557.068,345.295L558.721,344.828L560.955,343.88L563.774,342.567L566.084,341.265L568.584,339.378L569.876,338.738L571.374,337.314L573.738,336.131L573.251,337.219L572.793,338.272L575.065,337.24L574.702,338.316L573.77,339.387L572.017,340.561L569.096,342.414L567.199,343.423L566.808,344.622L565.308,344.651L562.806,345.588L560.778,347.206L557.341,349.681L554.801,350.767ZM575.877,339.181L576.125,338.514L575.631,338.147L578.555,336.044L579.103,334.625L577.838,333.593L578.656,332.655L580.812,331.749L582.738,329.739L583.959,328.043L584.486,326.275L584.891,325.81L584.74,324.715L584.859,322.357L585.332,320.463L586.235,320.253L586.296,321.742L587.374,322.434L586.219,324.805L585.584,327.588L586.983,325.787L587.348,326.508L586.114,328.501L587.051,329.354L588.226,329.566L590.149,328.563L590.917,328.87L588.579,331.189L586.731,332.708L585.27,332.655L584.097,333.44L583.354,334.551L582.661,335.03L580.742,336.417L578.263,338.165Z" fill="rgb(25, 122, 122)"/><path aria-label="pop_density: 15.14375304; id: 598; alpha-3: PNG" role="graphics-symbol" aria-roledescription="geoshape" transform="translate(0,0)" d="M579.002,241.488L578.179,240.347L577.407,238.461L577.147,236.197L577.473,235.91L577.635,236.791L578.241,237.465L579.127,239.352L580.06,240.357L579.656,241.192ZM567.385,239.699L566.21,239.694L564.485,238.834L563.308,238.004L563.573,237.083L565.514,237.515L566.743,237.284L567.198,235.859L567.522,235.784L567.602,237.364L568.878,237.138L569.585,236.121L570.903,235.059L570.793,233.306L572.117,233.25L572.529,233.739L572.365,235.386L571.471,237.203L570.288,237.445L569.861,238.28L568.583,239.005ZM546.09,248.003L547.165,238.336L547.75,228.639L551.494,230.69L555.482,232.394L556.911,233.915L558.027,235.411L558.225,237.168L561.727,239.005L562.108,240.579L560.041,240.9L560.311,242.875L562.037,244.823L563.03,247.968L564.303,247.868L564.018,249.18L565.641,249.681L564.889,250.237L567.016,251.483L566.633,252.338L565.144,252.543L564.729,251.778L562.904,251.448L560.756,251.003L559.344,249.115L558.333,247.487L557.542,244.894L554.832,243.593L552.865,244.442L551.395,245.42L551.379,247.607L549.509,248.624L548.353,248.128ZM573.51,235.084L573.226,233.331L572.784,232.177L571.84,231.205L570.65,229.934L569.099,229.057L569.743,228.336L570.901,229.173L571.618,229.828L572.513,230.544L573.325,231.794L574.108,232.747L574.262,234.293Z" fill="rgb(34, 131, 131)"/><path aria-label="pop_density: 16.2446514; id: 600; alpha-3: PRY" role="graphics-symbol" aria-roledescription="geoshape" transform="translate(0,0)" d="M102.22,286.326L102.552,282.89L102.384,281.342L103.064,278.804L106.703,277.963L108.708,278.007L110.9,279.483L111.046,280.372L111.889,281.975L112.285,285.871L114.613,286.418L115.411,285.857L116.954,286.631L117.472,287.488L118.044,290.099L118.457,291.196L119.262,291.321L119.989,290.859L120.827,291.374L121.057,292.935L121.021,294.612L120.864,296.241L120.921,298.722L119.38,300.871L117.801,301.321L115.375,300.89L113.129,300.132L114.46,295.859L113.951,294.612L111.596,293.505L108.673,291.408L106.87,290.98Z" fill="rgb(27, 124, 124)"/><path aria-label="pop_density: 12.76835265; id: 682; alpha-3: SAU" role="graphics-symbol" aria-roledescription="geoshape" transform="translate(0,0)" d="M328.765,172.509L328.38,171.266L327.663,170.389L327.399,169.226L326.201,168.184L324.848,165.754L324.032,163.393L322.37,161.41L321.369,160.937L319.701,158.196L319.268,156.201L319.196,154.507L317.663,151.346L316.557,150.235L315.354,149.648L314.486,148.022L314.534,147.385L313.796,145.922L313.114,145.292L312.072,143.197L310.543,140.939L309.27,139.019L308.227,139.033L308.387,137.502L308.368,136.533L308.494,135.426L310.863,135.867L311.657,135.014L312.026,134.017L313.558,133.634L313.782,132.714L314.404,132.244L311.986,129.499L315.905,128.13L316.237,127.72L318.817,128.458L322.156,130.375L328.815,135.918L332.708,136.139L334.605,136.406L335.327,137.732L336.785,137.657L337.975,140.063L339.103,140.702L339.606,141.682L341.219,142.864L341.512,144.02L341.446,144.958L341.849,145.908L342.569,146.696L342.983,147.625L343.392,148.319L344.111,148.88L344.669,148.679L345.225,149.764L345.4,150.417L346.602,153.303L353.198,154.744L353.544,154.139L354.798,156.163L354.11,161.913L347.99,164.803L341.89,165.91L340.006,167.216L338.739,170.265L337.769,170.753L337.137,169.783L336.324,169.93L334.203,169.635L333.788,169.345L331.293,169.414L330.731,169.674L329.78,168.921L329.321,170.349L329.637,171.577Z" fill="rgb(49, 147, 146)"/><path aria-label="pop_density: 18.32996633; id: 729; alpha-3: SDN" role="graphics-symbol" aria-roledescription="geoshape" transform="translate(0,0)" d="M288.328,195.107L287.549,194.255L287.385,193.333L287.711,192.101L287.673,190.894L286.36,189.049L286.081,187.785L286.084,187.071L285.255,186.202L285.181,184.491L284.69,183.355L283.924,183.525L284.111,182.444L284.638,181.221L284.347,180.003L285.039,179.104L284.56,178.419L285.067,176.609L285.979,174.456L287.865,174.659L287.224,163.124L287.185,161.913L289.659,161.903L289.326,156.163L297.911,156.163L306.189,156.163L314.66,156.163L315.601,158.979L315.175,159.5L315.731,162.465L316.794,165.92L317.672,166.632L318.936,167.707L317.961,169.364L316.406,169.842L315.782,170.733L315.701,172.672L315.029,176.966L315.332,178.136L315.119,180.659L314.387,183.555L313.133,185.015L312.295,187.265L312.125,188.469L311.116,189.299L310.583,192.391L310.604,192.747L310.293,192.687L310.28,191.215L309.981,190.199L308.807,189.034L308.453,186.906L308.629,184.731L307.603,184.526L307.482,185.184L306.172,185.334L306.736,186.197L306.989,187.969L305.849,189.589L304.833,191.72L303.704,192.026L301.805,190.299L300.995,190.909L300.793,191.77L299.679,192.331L299.626,192.942L297.434,192.942L297.116,192.331L295.531,192.231L294.753,192.737L294.137,192.481L292.958,190.759L292.555,189.944L290.986,190.349L290.422,191.72L289.919,194.365L289.18,194.922L288.514,195.248Z" fill="rgb(13, 110, 111)"/><path aria-label="pop_density: 19.22115041; id: 90; alpha-3: SLB" role="graphics-symbol" aria-roledescription="geoshape" transform="translate(0,0)" d="M592.188,253.058L590.659,253.038L590.157,251.223L591.34,251.933L591.762,252.043ZM588.436,250.307L587.143,250.007L586.761,249.551L587.088,248.374L588.461,248.84L589.078,249.461L589.302,250.237ZM590.834,249.977L589.623,247.412L589.437,245.641L590.182,245.641L590.613,248.013L591.259,249.431ZM587.884,246.288L586.338,245.029L585.278,243.965L584.582,242.976L584.945,242.674L585.87,243.387L587.494,244.753L587.876,245.691ZM582.661,242.925L581.784,242.252L581.024,241.031L581.191,240.533L582.364,241.79L583.126,242.76Z" fill="rgb(4, 105, 106)"/><path aria-label="pop_density: 14.87391207; id: 706; alpha-3: SOM" role="graphics-symbol" aria-roledescription="geoshape" transform="translate(0,0)" d="M327.935,225.905L326.635,223.444L326.565,212.589L328.448,209.212L329.035,208.274L330.45,208.219L332.369,206.119L335.244,205.988L341.185,197.074L342.614,194.601L343.516,192.782L343.436,191.24L343.27,188.259L343.205,187.041L343.218,186.996L343.917,186.936L344.899,186.496L346.04,186.202L347.015,185.194L347.842,185.184L347.943,185.997L347.855,187.715L347.957,189.264L347.553,190.334L347.107,193.533L346.201,196.838L344.989,200.63L343.239,204.986L341.437,208.315L338.908,212.377L336.725,214.792L333.442,217.748L331.386,220.018L328.96,223.625L328.442,225.199Z" fill="rgb(36, 133, 133)"/><path aria-label="pop_density: 10.72925755; id: 795; alpha-3: TKM" role="graphics-symbol" aria-roledescription="geoshape" transform="translate(0,0)" d="M359.08,118.318L358.331,116.079L356.815,115.985L353.924,113.649L352.265,113.36L349.72,112.033L348.25,111.789L347.502,112.277L346.154,112.201L345.11,113.703L343.48,114.211L342.667,112.356L342.286,109.627L340.535,108.749L340.594,106.977L339.257,106.829L339.135,104.666L341.139,105.294L342.636,104.476L340.809,102.944L339.858,101.494L338.471,102.141L338.767,104.005L337.726,102.355L338.358,101.511L340.407,100.985L341.912,101.695L343.824,103.685L344.783,103.56L346.965,103.526L346.286,102.248L347.684,101.374L348.873,99.911L351.876,101.241L352.696,103.263L353.594,103.784L355.667,103.668L356.461,104.134L358.22,106.777L360.992,108.56L362.638,109.781L365.086,111.055L368.052,112.175L368.475,113.783L367.848,113.698L366.705,112.996L366.661,113.934L365.126,114.443L365.316,116.554L364.402,117.363L362.925,117.764L362.821,118.972L361.396,119.329Z" fill="rgb(68, 160, 159)"/><path aria-label="pop_density: 19.18066507; id: 858; alpha-3: URY" role="graphics-symbol" aria-roledescription="geoshape" transform="translate(0,0)" d="M116.816,308.726L118.098,308.432L120.589,310.561L121.337,310.477L123.801,312.236L125.709,313.748L127.256,315.6L126.62,316.885L127.499,318.413L126.973,320.108L125.02,321.597L123.409,321.062L122.375,321.348L120.25,320.199L118.892,320.285L117.317,318.796L117.076,317.05L117.389,316.445L116.779,313.739L116.739,310.928Z" fill="rgb(5, 105, 106)"/><path aria-label="pop_density: 19.68826907; id: 548; alpha-3: VUT" role="graphics-symbol" aria-roledescription="geoshape" transform="translate(0,0)" d="M599.165,269.998L598.822,268.72L599.13,267.939L600,269.613ZM599.376,267.494L598.894,267.128L598.395,267.286L598.318,266.48L598.885,264.236L599.684,265.138Z" fill="rgb(0, 102, 103)"/><path aria-label="pop_density: 17.38925732; id: 894; alpha-3: ZMB" role="graphics-symbol" aria-roledescription="geoshape" transform="translate(0,0)" d="M307.976,248.339L308.967,249.661L309.437,252.168L309.035,252.968L308.496,255.36L308.808,257.804L308.076,258.825L307.278,261.555L308.395,262.315L301.661,264.732L301.76,266.816L300.097,267.217L298.795,268.379L298.485,269.391L297.692,269.618L295.688,272.014L294.39,273.898L293.655,273.962L292.972,273.627L290.568,273.308L290.189,273.091L290.186,272.85L289.368,272.196L287.973,272.029L286.167,272.688L284.835,270.871L283.463,268.487L283.888,259.163L288.443,259.198L288.288,258.187L288.646,257.081L288.303,255.7L288.598,254.272L288.396,253.353L289.152,253.428L289.243,254.347L290.279,254.272L291.66,254.546L292.35,255.884L294.086,256.298L295.459,255.365L295.893,256.911L297.556,257.32L298.319,258.576L299.15,260.193L300.816,260.218L300.765,257.046L300.146,257.579L298.661,256.433L298.089,255.909L298.461,252.948L298.959,249.451L298.506,248.143L299.184,246.253L299.787,245.897L302.757,245.4L303.612,245.701L304.51,246.454L305.375,246.95L306.761,247.452Z" fill="rgb(20, 116, 117)"/></g><g class="mark-group role-legend" role="graphics-symbol" aria-roledescription="legend" aria-label="Gradient legend titled 'pop_density' for fill color with values from 0 to 20"><g transform="translate(618,0)"><path class="background" aria-hidden="true" d="M0,0h65v216h-65Z" pointer-events="none"/><g><g class="mark-group role-legend-entry"><g transform="translate(0,16)"><path class="background" aria-hidden="true" d="M0,0h0v0h0Z" pointer-events="none"/><g><g class="mark-rect role-legend-gradient" pointer-events="none"><path d="M0,0h16v200h-16Z" fill="url(#gradient_0)" stroke="#ddd" stroke-width="0" opacity="1"/></g><g class="mark-text role-legend-label" pointer-events="none"><text text-anchor="start" transform="translate(18,153.2595299215421)" font-family="sans-serif" font-size="10px" fill="#000" opacity="1">5</text><text text-anchor="start" transform="translate(18,102.11002782383098)" font-family="sans-serif" font-size="10px" fill="#000" opacity="1">10</text><text text-anchor="start" transform="translate(18,50.96052572611984)" font-family="sans-serif" font-size="10px" fill="#000" opacity="1">15</text></g></g><path class="foreground" aria-hidden="true" d="" pointer-events="none" display="none"/></g></g><g class="mark-text role-legend-title" pointer-events="none"><text text-anchor="start" transform="translate(0,9)" font-family="sans-serif" font-size="11px" font-weight="bold" fill="#000" opacity="1">pop_density</text></g></g><path class="foreground" aria-hidden="true" d="" pointer-events="none" display="none"/></g></g><g class="mark-group role-title"><g transform="translate(300,-17)"><path class="background" aria-hidden="true" d="M0,0h0v0h0Z" pointer-events="none"/><g><g class="mark-text role-title-text" role="graphics-symbol" aria-roledescription="title" aria-label="Title text 'Population density in 2010'" pointer-events="none"><text text-anchor="middle" transform="translate(0,10)" font-family="sans-serif" font-size="13px" font-weight="bold" fill="#000" opacity="1">Population density in 2010</text></g></g><path class="foreground" aria-hidden="true" d="" pointer-events="none" display="none"/></g></g></g><path class="foreground" aria-hidden="true" d="" display="none"/></g></g></g><defs><linearGradient id="gradient_0" x1="0" x2="0" y1="1" y2="0"><stop offset="0" stop-color="rgb(187, 223, 223)"/><stop offset="0.04410434200144497" stop-color="rgb(176, 218, 219)"/><stop offset="0.09525384409915609" stop-color="rgb(163, 213, 213)"/><stop offset="0.1464033461968672" stop-color="rgb(151, 207, 207)"/><stop offset="0.19755284829457834" stop-color="rgb(139, 201, 201)"/><stop offset="0.24870235039228947" stop-color="rgb(128, 195, 194)"/><stop offset="0.29985185249000057" stop-color="rgb(117, 188, 187)"/><stop offset="0.3510013545877117" stop-color="rgb(107, 182, 181)"/><stop offset="0.40215085668542283" stop-color="rgb(97, 176, 175)"/><stop offset="0.453300358783134" stop-color="rgb(86, 170, 169)"/><stop offset="0.5044498608808451" stop-color="rgb(76, 164, 163)"/><stop offset="0.5555993629785563" stop-color="rgb(65, 158, 157)"/><stop offset="0.6067488650762674" stop-color="rgb(54, 152, 151)"/><stop offset="0.6578983671739785" stop-color="rgb(48, 145, 145)"/><stop offset="0.7090478692716896" stop-color="rgb(42, 138, 139)"/><stop offset="0.7601973713694008" stop-color="rgb(35, 132, 132)"/><stop offset="0.8113468734671119" stop-color="rgb(29, 126, 126)"/><stop offset="0.8624963755648231" stop-color="rgb(23, 119, 120)"/><stop offset="0.9136458776625341" stop-color="rgb(16, 112, 113)"/><stop offset="0.9647953797602453" stop-color="rgb(6, 106, 107)"/><stop offset="1" stop-color="rgb(0, 102, 103)"/></linearGradient></defs></svg>